# ProBuilder 5.0.7
# https://unity3d.com/unity/features/worldbuilding/probuilder
# 17.01.2024 14:08:01

mtllib ./PolyShape.mtl
o PolyShape

g PolyShape
v -1.447643 0 -1.1
v 0.1 0 -1.1
v -1.447643 0.1 -1.1
v 0.1 0.1 -1.1
v 0.1 0 0.1
v 0.1 0.1 0.1
v -6.4 0 -3.4
v -6.4 0 -1.4
v -6.4 0.1 -3.4
v -6.4 0.1 -1.4
v -8.6 0 -1.4
v -8.6 0.1 -1.4
v -4.35 0 -3.4
v -4.35 0.1 -3.4
v -8.6 0 -5.1
v -2.4 0 -5.1
v -8.6 0.1 -5.1
v -2.4 0.1 -5.1
v -2.4 0 -3.498826
v -2.4 0.1 -3.498826
v -2.423288 0 -2.507454
v -2.423288 0.1 -2.507454
v -4.35 0 -2.468478
v -4.35 0.1 -2.468478
v -2.552066 0 0.1
v -2.552066 0.1 0.1
v -8.5 0 -5
v -2.5 0 -5
v -2.5 0.2 -5
v -8.5 0.2 -5
v -2.4 0.2 -5.1
v -8.6 0.2 -5.1
v -2.5 0 -3.5
v -2.5 0.2 -3.5
v -2.4 0.2 -3.498826
v -2.524025 0 -2.477247
v -2.524025 0.2 -2.477247
v -2.423288 0.2 -2.507454
v -1.5 0 -1
v -1.5 0.2 -1
v -1.447643 0.2 -1.1
v 0 0 -1
v 0 0.2 -1
v 0.1 0.2 -1.1
v 0 0 0
v 0 0.2 0
v 0.1 0.2 0.1
v -2.5 0 0
v -2.5 0.2 0
v -2.552066 0.2 0.1
v -4.25 0 -2.5
v -4.25 0.2 -2.5
v -4.35 0.2 -2.468478
v -4.25 0 -3.5
v -4.25 0.2 -3.5
v -4.35 0.2 -3.4
v -6.5 0 -3.5
v -6.5 0.2 -3.5
v -6.4 0.2 -3.4
v -6.5 0 -1.5
v -6.5 0.2 -1.5
v -6.4 0.2 -1.4
v -8.5 0 -1.5
v -8.5 0.2 -1.5
v -8.6 0.2 -1.4
v -6.5 0.1 -3.5
v -4.25 0.1 -3.5
v -4.25 0.1 -2.5
v -2.5 0.1 0
v 0 0.1 0
v 0 0.1 -1
v -1.5 0.1 -1
v -2.524025 0.1 -2.477247
v -2.5 0.1 -3.5
v -2.5 0.1 -5
v -8.5 0.1 -5
v -8.5 0.1 -1.5
v -6.5 0.1 -1.5
v -8.5 0.1 -3.5
v -8.5 0.2 -3.5
v -8.6 0.2 -3.5
v -8.6 0.1 -3.5
v -8.6 0 -3.5
v -8.5 0 -3.5
v -7.511491 0.01501036 -1.772522
v -7.474491 0.01501036 -1.791804
v -7.471305 7.301569E-06 -1.837833
v -7.511631 0.01501036 -1.867139
v -7.548738 0.01501036 -1.847886
v -7.552519 0.01501036 -1.795357
v -7.51169 0.0995 -1.672569
v -7.395647 0.0995 -1.735079
v -7.640666 0.0995 -1.742935
v -7.387398 0.0995 -1.87714
v -7.506514 0.0995 -1.97307
v -7.625553 0.0995 -1.903093
v -7.552519 0.07722196 -1.795357
v -7.548738 0.07722196 -1.847886
v -7.511631 0.07722196 -1.867139
v -7.471305 0.07722196 -1.837833
v -7.511491 0.07722196 -1.772522
v -7.474491 0.07722196 -1.791804

vt 1.447643 0
vt -0.1 0
vt 1.447643 0.1
vt -0.1 0.1
vt 1.1 0
vt 1.1 0.1
vt 3.4 0
vt 1.4 0
vt 3.4 0.1
vt 1.4 0.1
vt -6.4 0
vt -8.6 0
vt -6.4 0.1
vt -8.6 0.1
vt -4.35 0
vt -4.35 0.1
vt 8.6 0
vt 2.4 0
vt 8.6 0.1
vt 2.4 0.1
vt 5.1 0
vt 3.498826 0
vt 5.1 0.1
vt 3.498826 0.1
vt 3.4415 0
vt 2.449855 0
vt 3.4415 0.1
vt 2.449855 0.1
vt -2.468478 0
vt -3.4 0
vt -2.468478 0.1
vt -3.4 0.1
vt -1.38159 0
vt -4.516817 0
vt -1.38159 0.1
vt -4.516817 0.1
vt 1.728764 0
vt 1.728764 0.1
vt 0.1 0
vt -2.552066 0
vt 0.1 0.1
vt -2.552066 0.1
vt -8.5 -5
vt -2.5 -5
vt -8.6 -5.1
vt -2.4 -5.1
vt 2.5 -5
vt 8.5 -5
vt 2.4 -5.1
vt 8.6 -5.1
vt -2.5 -3.5
vt -2.4 -3.498826
vt 2.5 -3.5
vt 2.4 -3.498826
vt -2.524025 -2.477247
vt -2.423288 -2.507454
vt 2.524025 -2.477247
vt 2.423288 -2.507454
vt -1.5 -1
vt -1.447643 -1.1
vt 1.5 -1
vt 1.447643 -1.1
vt 0 -1
vt 0.1 -1.1
vt -0.1 -1.1
vt 0 0
vt -2.5 0
vt 2.5 0
vt 2.552066 0.1
vt -4.25 -2.5
vt -4.35 -2.468478
vt 4.25 -2.5
vt 4.35 -2.468478
vt -4.25 -3.5
vt -4.35 -3.4
vt 4.25 -3.5
vt 4.35 -3.4
vt -6.5 -3.5
vt -6.4 -3.4
vt 6.5 -3.5
vt 6.4 -3.4
vt -6.5 -1.5
vt -6.4 -1.4
vt 6.5 -1.5
vt 6.4 -1.4
vt -8.5 -1.5
vt -8.6 -1.4
vt 8.5 -1.5
vt 8.6 -1.4
vt 6.5 0.1
vt 4.25 0.1
vt 6.5 0.2
vt 4.25 0.2
vt 3.4 0.2
vt 1.4 0.2
vt -4.35 0.2
vt -6.4 0.2
vt 3.5 0.1
vt 2.5 0.1
vt 3.5 0.2
vt 2.5 0.2
vt -2.468478 0.2
vt -3.4 0.2
vt 4.485295 0.1
vt 1.433656 0.1
vt 4.485295 0.2
vt 1.433656 0.2
vt -1.38159 0.2
vt -4.516817 0.2
vt 0 0.1
vt 0 0.2
vt 0.1 0.2
vt -2.552066 0.2
vt -1 0.1
vt -1 0.2
vt 1.1 0.2
vt -0.1 0.2
vt -1.5 0.1
vt -1.5 0.2
vt 1.447643 0.2
vt -1.676406 0.1
vt -3.473873 0.1
vt -1.676406 0.2
vt -3.473873 0.2
vt 3.441308 0.2
vt 1.728764 0.2
vt -2.41729 0.1
vt -3.440325 0.1
vt -2.41729 0.2
vt -3.440325 0.2
vt 2.449855 0.2
vt -3.5 0.1
vt -5 0.1
vt -3.5 0.2
vt -5 0.2
vt 5.1 0.2
vt 3.498826 0.2
vt -2.5 0.1
vt -8.5 0.1
vt -2.5 0.2
vt -8.5 0.2
vt 8.6 0.2
vt 2.4 0.2
vt 8.5 0.1
vt 8.5 0.2
vt -8.6 0.2
vt 8.5 -3.5
vt 1.5 0.1
vt 1.5 0.2
vt 5 0.2
vt 5 0.1
vt 8.6 -3.5
vt -1.4 0.2
vt -1.4 0.1
vt -5.1 0.1
vt -5.1 0.2
vt -3.5 0
vt -1.4 0
vt -5.1 0
vt -8.6 -3.5
vt -8.5 -3.5
vt 7.51104 -1.718406
vt 7.434371 -1.759744
vt 7.427771 -1.858427
vt 7.511329 -1.921255
vt 7.588221 -1.879978
vt 7.596054 -1.767362
vt 7.51169 -1.672347
vt 7.395647 -1.734857
vt 6.5 -1.499777
vt 8.5 -1.499777
vt 7.640666 -1.742713
vt 7.387398 -1.877155
vt 7.506514 -1.973085
vt 7.625553 -1.903108
vt 6.5 -3.500015
vt 6.5 -1.500015
vt 7.395647 -1.735093
vt 7.321974 -1.761003
vt 7.318318 -1.81354
vt 7.412887 -1.708572
vt 7.398275 -1.868774
vt 7.502868 -1.610737
vt 7.466032 -1.630505
vt 7.58181 -1.667419
vt 7.463641 -1.738832
vt 7.419788 -2.061789
vt 7.379895 -2.031898
vt 7.411472 -2.16984
vt 7.293633 -2.072362
vt 7.463976 -1.913529
vt 7.504693 -1.936914
vt 7.466913 -1.811165
vt 7.594911 -1.883295
vt 7.41329 -1.536397
vt 7.450032 -1.516629
vt 7.332369 -1.478239
vt 7.447603 -1.414252
vt 7.184533 -1.799958
vt 7.187605 -1.753921
vt 7.097722 -1.839271
vt 7.105676 -1.697194
vt 1.248522 0.07722196
vt 1.301187 0.07722196
vt 1.248522 0.01501036
vt 1.301187 0.01501036
vt -5.849485 0.07722196
vt -5.80768 0.07722196
vt -5.849485 0.01501036
vt -5.80768 0.01501036
vt -7.174181 0.07722196
vt -7.124332 0.07722196
vt -7.174181 0.01501036
vt -7.124332 7.301569E-06
vt 7.425426 0.07722196
vt 7.472381 0.07722196
vt 7.425426 0.01501036
vt 7.472381 0.01501036
vt 5.800389 0.07722196
vt 5.842112 0.07722196
vt 5.800389 0.01501036
vt 5.842112 0.01501036
vt -1.317584 0.07722196
vt -1.271445 0.07722196
vt -1.317584 7.301569E-06
vt -1.271445 0.01501036

vn 0 0 -1
vn 1 0 0
vn 0 0 1
vn 0.9997242 0 0.02348374
vn -1 0 0
vn -0.8192319 0 0.5734624
vn 0.8218495 0 -0.5697047
vn 0 -1 0
vn 0 1 0
vn 0.8192319 0 -0.5734623
vn -0.8218495 0 0.5697046
vn -0.9997242 0 -0.02348377
vn -0.0355939 0.9578692 -0.2419398
vn -0.1646496 0.9343795 -0.3159518
vn 0.06021504 0.9576061 -0.1134769
vn 0.1259165 0.9785402 0.07172439
vn 0.1150982 0.9794797 -0.008159652
vn 2.630288E-06 0.9999984 -0.00143223
vn -0.000375363 0.9999997 -0.000696822
vn -0.0001876815 0.9999977 -0.001797103
vn -0.0004285295 0.9999999 6.065769E-05
vn 0.000597794 0.9999998 5.640899E-05
vn -0.0005566612 0.9999999 -1.59643E-05
vn 0.2552484 0.966701 0.01837192
vn 0.258638 0.9657223 0.02154867
vn 0.2620276 0.9647436 0.02472543
vn 0.117564 0.9668698 0.2265866
vn 0.1204873 0.9683825 0.2182612
vn 0.1234107 0.9698952 0.2099359
vn -0.1432023 0.9698778 0.1970537
vn -0.1526801 0.9679407 0.1992021
vn -0.1621579 0.9660035 0.2013505
vn 0.1200753 0.9690385 -0.2157456
vn 0.1186593 0.9693058 -0.2153233
vn 0.1172434 0.9695729 -0.2149009
vn -0.1149611 0.9685651 -0.2206029
vn -0.1157347 0.9689593 -0.2184441
vn -0.1165083 0.9693536 -0.2162854
vn -0.2645788 0.9641902 -0.01831179
vn -0.2631593 0.9646046 -0.01675486
vn -0.2617397 0.9650189 -0.01519793
vn 0.9974197 0 0.07179091
vn 0.4605477 0 0.887635
vn -0.5878778 0 0.8089498
vn 0.4863132 0 -0.8737846
vn -0.4621361 0 -0.8868091
vn -0.9976135 0 -0.06904594

usemtl Collider
f 70/66/9 71/63/9 72/61/9
f 66/80/9 76/48/9 79/147/9
f 76/48/9 66/80/9 75/47/9
f 75/47/9 66/80/9 67/76/9
f 67/76/9 74/53/9 75/47/9
f 73/57/9 74/53/9 67/76/9
f 68/72/9 73/57/9 67/76/9
f 69/68/9 73/57/9 68/72/9
f 69/68/9 72/61/9 73/57/9
f 70/66/9 72/61/9 69/68/9
f 88/165/16 89/166/9 90/167/17
f 90/167/17 87/164/15 88/165/16
f 90/167/17 85/162/13 87/164/15
f 87/164/15 85/162/13 86/163/14
f 91/168/18 93/172/19 77/171/20
f 78/170/20 92/169/19 91/168/18
f 77/171/20 78/170/20 91/168/18
f 77/88/22 93/172/22 96/175/21
f 77/88/22 96/175/21 79/147/21
f 96/175/21 95/174/9 79/147/21
f 95/174/9 66/176/9 79/147/21
f 94/173/21 66/176/9 95/174/9
f 78/177/23 66/176/9 94/173/21
f 78/177/23 94/173/21 92/178/23
f 4/4/1 2/2/1 1/1/1
f 1/1/1 3/3/1 4/4/1
f 6/4/2 5/2/2 2/5/2
f 2/5/2 4/6/2 6/4/2
f 10/10/2 8/8/2 7/7/2
f 7/7/2 9/9/2 10/10/2
f 12/14/3 11/12/3 8/11/3
f 8/11/3 10/13/3 12/14/3
f 9/13/3 7/11/3 13/15/3
f 13/15/3 14/16/3 9/13/3
f 18/20/1 16/18/1 15/17/1
f 15/17/1 17/19/1 18/20/1
f 20/24/2 19/22/2 16/21/2
f 16/21/2 18/23/2 20/24/2
f 22/28/4 21/26/4 19/25/4
f 19/25/4 20/27/4 22/28/4
f 14/32/5 13/30/5 23/29/5
f 23/29/5 24/31/5 14/32/5
f 24/36/6 23/34/6 25/33/6
f 25/33/6 26/35/6 24/36/6
f 3/38/7 1/37/7 21/25/7
f 21/25/7 22/27/7 3/38/7
f 26/42/3 25/40/3 5/39/3
f 5/39/3 6/41/3 26/42/3
f 16/46/8 28/44/8 27/43/8
f 27/43/8 15/45/8 16/46/8
f 32/50/9 30/48/9 29/47/9
f 29/47/9 31/49/9 32/50/9
f 19/52/8 33/51/8 28/44/8
f 28/44/8 16/46/8 19/52/8
f 31/49/9 29/47/9 34/53/9
f 34/53/9 35/54/9 31/49/9
f 21/56/8 36/55/8 33/51/8
f 33/51/8 19/52/8 21/56/8
f 35/54/9 34/53/9 37/57/9
f 37/57/9 38/58/9 35/54/9
f 1/60/8 39/59/8 36/55/8
f 36/55/8 21/56/8 1/60/8
f 38/58/9 37/57/9 40/61/9
f 40/61/9 41/62/9 38/58/9
f 2/64/8 42/63/8 39/59/8
f 39/59/8 1/60/8 2/64/8
f 41/62/9 40/61/9 43/63/9
f 43/63/9 44/65/9 41/62/9
f 5/41/8 45/66/8 42/63/8
f 42/63/8 2/64/8 5/41/8
f 44/65/9 43/63/9 46/66/9
f 46/66/9 47/4/9 44/65/9
f 25/42/8 48/67/8 45/66/8
f 45/66/8 5/41/8 25/42/8
f 47/4/9 46/66/9 49/68/9
f 49/68/9 50/69/9 47/4/9
f 23/71/8 51/70/8 48/67/8
f 48/67/8 25/42/8 23/71/8
f 50/69/9 49/68/9 52/72/9
f 52/72/9 53/73/9 50/69/9
f 13/75/8 54/74/8 51/70/8
f 51/70/8 23/71/8 13/75/8
f 53/73/9 52/72/9 55/76/9
f 55/76/9 56/77/9 53/73/9
f 7/79/8 57/78/8 54/74/8
f 54/74/8 13/75/8 7/79/8
f 56/77/9 55/76/9 58/80/9
f 58/80/9 59/81/9 56/77/9
f 8/83/8 60/82/8 57/78/8
f 57/78/8 7/79/8 8/83/8
f 59/81/9 58/80/9 61/84/9
f 61/84/9 62/85/9 59/81/9
f 11/87/8 63/86/8 60/82/8
f 60/82/8 8/83/8 11/87/8
f 62/85/9 61/84/9 64/88/9
f 64/88/9 65/89/9 62/85/9
f 55/93/1 67/91/1 66/90/1
f 66/90/1 58/92/1 55/93/1
f 62/95/2 10/10/2 9/9/2
f 9/9/2 59/94/2 62/95/2
f 59/97/3 9/13/3 14/16/3
f 14/16/3 56/96/3 59/97/3
f 52/101/2 68/99/2 67/98/2
f 67/98/2 55/100/2 52/101/2
f 56/103/5 14/32/5 24/31/5
f 24/31/5 53/102/5 56/103/5
f 49/107/10 69/105/10 68/104/10
f 68/104/10 52/106/10 49/107/10
f 53/109/6 24/36/6 26/35/6
f 26/35/6 50/108/6 53/109/6
f 46/111/1 70/110/1 69/99/1
f 69/99/1 49/101/1 46/111/1
f 50/113/3 26/42/3 6/41/3
f 6/41/3 47/112/3 50/113/3
f 43/115/5 71/114/5 70/110/5
f 70/110/5 46/111/5 43/115/5
f 47/117/2 6/4/2 4/6/2
f 4/6/2 44/116/2 47/117/2
f 40/119/3 72/118/3 71/110/3
f 71/110/3 43/111/3 40/119/3
f 44/117/1 4/4/1 3/3/1
f 3/3/1 41/120/1 44/117/1
f 37/124/11 73/122/11 72/121/11
f 72/121/11 40/123/11 37/124/11
f 41/126/7 3/38/7 22/27/7
f 22/27/7 38/125/7 41/126/7
f 34/130/12 74/128/12 73/127/12
f 73/127/12 37/129/12 34/130/12
f 38/131/4 22/28/4 20/27/4
f 20/27/4 35/125/4 38/131/4
f 29/135/5 75/133/5 74/132/5
f 74/132/5 34/134/5 29/135/5
f 35/137/2 20/24/2 18/23/2
f 18/23/2 31/136/2 35/137/2
f 30/141/3 76/139/3 75/138/3
f 75/138/3 29/140/3 30/141/3
f 31/143/1 18/20/1 17/19/1
f 17/19/1 32/142/1 31/143/1
f 61/92/1 78/90/1 77/144/1
f 77/144/1 64/145/1 61/92/1
f 65/146/3 12/14/3 10/13/3
f 10/13/3 62/97/3 65/146/3
f 58/134/5 66/132/5 78/118/5
f 78/118/5 61/119/5 58/134/5
f 80/100/2 64/149/2 77/148/2
f 77/148/2 79/98/2 80/100/2
f 76/151/2 30/150/2 80/100/2
f 80/100/2 79/98/2 76/151/2
f 80/147/9 30/48/9 32/50/9
f 32/50/9 81/152/9 80/147/9
f 64/88/9 80/147/9 81/152/9
f 81/152/9 65/89/9 64/88/9
f 81/134/5 82/132/5 12/154/5
f 12/154/5 65/153/5 81/134/5
f 32/156/5 17/155/5 82/132/5
f 82/132/5 81/134/5 32/156/5
f 82/132/5 83/157/5 11/158/5
f 11/158/5 12/154/5 82/132/5
f 17/155/5 15/159/5 83/157/5
f 83/157/5 82/132/5 17/155/5
f 27/43/8 84/161/8 83/160/8
f 83/160/8 15/45/8 27/43/8
f 63/86/8 11/87/8 83/160/8
f 83/160/8 84/161/8 63/86/8
f 93/181/25 97/179/24 98/180/25
f 98/180/25 96/182/26 93/181/25
f 96/185/28 98/183/27 99/184/28
f 99/184/28 95/186/29 96/185/28
f 95/189/31 99/187/30 100/188/31
f 100/188/31 94/190/32 95/189/31
f 91/193/34 101/191/33 97/192/34
f 97/192/34 93/194/35 91/193/34
f 92/197/37 102/195/36 101/196/37
f 101/196/37 91/198/38 92/197/37
f 94/201/40 100/199/39 102/200/40
f 102/200/40 92/202/41 94/201/40
f 89/206/42 98/204/42 97/203/42
f 97/203/42 90/205/42 89/206/42
f 88/210/43 99/208/43 98/207/43
f 98/207/43 89/209/43 88/210/43
f 87/214/44 100/212/44 99/211/44
f 99/211/44 88/213/44 87/214/44
f 90/218/45 97/216/45 101/215/45
f 101/215/45 85/217/45 90/218/45
f 85/222/46 101/220/46 102/219/46
f 102/219/46 86/221/46 85/222/46
f 86/226/47 102/224/47 100/223/47
f 100/223/47 87/225/47 86/226/47

